<svg width="172" height="48" viewBox="0 0 172 48" fill="none" xmlns="http://www.w3.org/2000/svg">
<g id="Vector">
<path d="M67.8519 13.7112V17.7405H57.0372V22.1433H66.9936V26.2014H57.0372V34.6694H51.8373V13.7112H67.8519Z" fill="#0073FF"/>
<path d="M72.1006 13.6825H76.5923V17.2378H72.1006V13.6825ZM72.1006 19.1411H76.5923V34.6623H72.1006V19.1411Z" fill="#0073FF"/>
<path d="M79.8108 19.1698H84.603C86.4984 26.0577 86.8202 27.4655 87.3209 30.4247C87.9432 26.9843 88.0362 26.6036 88.9517 22.9478L89.8959 19.1555H94.5664L89.5597 34.6479H84.8104L79.8108 19.1698Z" fill="#0073FF"/>
<path d="M111.804 30.7119C111.277 31.5578 110.65 32.3368 109.937 33.0318C108.341 34.4745 106.262 35.2594 104.115 35.2296C99.5304 35.2296 96.3118 32.2633 96.3118 27.2141C96.3118 23.4721 98.1428 18.6599 104.23 18.6599C105.259 18.6283 106.283 18.8097 107.239 19.1928C108.195 19.5758 109.062 20.1523 109.787 20.8864C111.804 23.0411 111.933 26.0864 111.976 27.8318H100.961C100.961 29.7638 102.019 31.6887 104.494 31.6887C106.969 31.6887 107.835 30.0511 108.4 28.9594L111.804 30.7119ZM107.277 24.966C107.239 24.1585 106.938 23.3859 106.418 22.7682C105.817 22.206 105.022 21.8997 104.201 21.9135C103.769 21.9107 103.34 21.9988 102.944 22.1719C102.547 22.3451 102.191 22.5996 101.898 22.919C101.406 23.5007 101.089 24.2105 100.982 24.966H107.277Z" fill="#0073FF"/>
<path d="M116.482 14.688H121.009V19.5289H123.992V22.3157H120.981V29.3257C120.981 30.2738 120.981 31.0997 122.161 31.0997L123.792 31.0423V34.5976C123.001 34.7409 122.199 34.8201 121.396 34.8346C119.822 34.8346 118.113 34.7484 117.104 33.3191C116.482 32.3998 116.453 31.3009 116.453 29.8213V22.287H114.207V19.493H116.453L116.482 14.688Z" fill="#0073FF"/>
<path d="M132.175 20.7715C133.414 19.6815 134.991 19.0549 136.638 18.9974V23.0483L135.136 23.2853C132.947 23.666 132.275 24.0035 132.275 25.9572V34.6622H127.747V19.1411H132.182L132.175 20.7715Z" fill="#0073FF"/>
<path d="M139.928 23.5798C139.919 22.9192 140.061 22.2654 140.344 21.6688C140.627 21.0723 141.042 20.549 141.559 20.1394C142.989 19.019 144.806 18.782 146.616 18.782C148.425 18.782 153.103 19.2201 153.103 23.2279V32.1987C153.103 33.865 153.189 34.102 153.546 34.6335H149.112V33.197C147.932 34.0589 146.658 35.0429 144.391 35.0429C140.858 35.0429 139.341 32.4859 139.341 30.3025C139.341 27.8102 141.323 26.3881 142.589 25.8566C144.576 25.2161 146.612 24.7358 148.675 24.4201V23.587C148.618 22.8687 148.561 21.6836 146.909 21.6836C144.899 21.6836 144.627 22.9334 144.513 23.5008L139.928 23.5798ZM145.693 28.2483C144.927 28.5428 143.74 28.9666 143.74 30.1732C143.764 30.6115 143.96 31.0225 144.284 31.317C144.608 31.6116 145.034 31.7658 145.471 31.7462C146.03 31.7289 146.572 31.5547 147.037 31.2434C148.54 30.2953 148.604 28.8732 148.64 27.2644L145.693 28.2483Z" fill="#0073FF"/>
<path d="M162.859 20.5631C163.278 20.0486 163.806 19.6341 164.404 19.3493C165.293 18.9748 166.244 18.7749 167.208 18.7603C168.162 18.737 169.108 18.9491 169.962 19.3781C171.585 20.2399 172 21.6333 172 24.0394V34.6622H167.48V25.9356C167.558 25.1584 167.487 24.3735 167.272 23.6228C167.093 23.2404 166.802 22.922 166.438 22.7102C166.073 22.4984 165.653 22.4033 165.234 22.4377C162.838 22.4377 162.838 24.3698 162.838 26.2947V34.6622H158.303V19.1985H162.888L162.859 20.5631Z" fill="#0073FF"/>
<path d="M24.0784 24.0251H28.8777C29.0674 24.0251 29.2493 23.9494 29.3835 23.8147C29.5176 23.68 29.593 23.4973 29.593 23.3069C29.5926 23.2083 29.5732 23.1107 29.5357 23.0195L21.2817 0.459662C21.2308 0.326928 21.1417 0.212386 21.0258 0.130549C20.91 0.0487127 20.7725 0.00327972 20.6308 0H15.8172C15.6275 0 15.4456 0.0756599 15.3114 0.210356C15.1773 0.345052 15.1019 0.52775 15.1019 0.718239C15.102 0.801523 15.1166 0.884152 15.1449 0.962438L23.406 23.5798C23.4606 23.7132 23.5539 23.8271 23.6739 23.9065C23.7938 23.9859 23.9347 24.0273 24.0784 24.0251Z" fill="#0073FF"/>
<path d="M23.2271 47.9999H28.0264C28.2161 47.9999 28.398 47.9242 28.5322 47.7895C28.6663 47.6548 28.7417 47.4721 28.7417 47.2817C28.7416 47.1984 28.7271 47.1157 28.6988 47.0374L11.6829 0.473993C11.6314 0.340142 11.5413 0.224836 11.424 0.142908C11.3067 0.0609794 11.1677 0.0161942 11.0248 0.0143313H6.23264C6.04294 0.0143313 5.86102 0.0899912 5.72689 0.224687C5.59275 0.359383 5.51738 0.542082 5.51738 0.732571C5.51748 0.815854 5.532 0.898483 5.5603 0.976769L22.5762 47.5474C22.6283 47.6788 22.7178 47.7918 22.8336 47.8723C22.9494 47.9528 23.0863 47.9972 23.2271 47.9999Z" fill="#0073FF"/>
<path d="M13.7716 47.9999H18.5637C18.7439 48.0005 18.9177 47.9328 19.0503 47.8103C19.1829 47.6878 19.2646 47.5195 19.279 47.3392C19.2788 47.2441 19.2643 47.1497 19.2361 47.059L10.9535 24.4776C10.9025 24.3449 10.8135 24.2303 10.6976 24.1484C10.5817 24.0666 10.4442 24.0212 10.3026 24.0179H5.48179C5.29962 24.0289 5.12853 24.1094 5.00354 24.2429C4.87855 24.3764 4.80912 24.5529 4.80945 24.7361C4.80922 24.8148 4.82378 24.8928 4.85236 24.966L13.0992 47.5546C13.1538 47.6881 13.2471 47.8019 13.367 47.8813C13.487 47.9608 13.6279 48.0021 13.7716 47.9999Z" fill="#0073FF"/>
<path d="M24.6577 0.983984L28.5272 11.5493C28.5782 11.682 28.6672 11.7966 28.7831 11.8784C28.899 11.9602 29.0365 12.0057 29.1781 12.009H33.956C34.1457 12.009 34.3276 11.9333 34.4618 11.7986C34.5959 11.6639 34.6713 11.4812 34.6713 11.2907C34.6712 11.2074 34.6566 11.1248 34.6283 11.0465L30.7588 0.474019C30.7079 0.341285 30.6188 0.226742 30.5029 0.144906C30.3871 0.0630695 30.2496 0.0176366 30.1079 0.0143569H25.3086C25.1189 0.0143569 24.937 0.0900168 24.8028 0.224713C24.6687 0.359409 24.5933 0.542107 24.5933 0.732596C24.5994 0.819621 24.6212 0.904811 24.6577 0.983984Z" fill="#0073FF"/>
<path d="M4.92386 47.9999H9.71607C9.90577 47.9999 10.0877 47.9242 10.2218 47.7895C10.356 47.6549 10.4313 47.4722 10.4313 47.2817C10.4312 47.1984 10.4167 47.1157 10.3884 47.0375L6.49743 36.4434C6.44601 36.3096 6.35588 36.1943 6.2386 36.1124C6.12131 36.0304 5.98227 35.9857 5.83941 35.9838H1.05436C0.864667 35.9838 0.68275 36.0594 0.548614 36.1941C0.414479 36.3288 0.339111 36.5115 0.339111 36.702C0.339373 36.7876 0.353876 36.8726 0.382025 36.9534L4.25152 47.5474C4.30497 47.6822 4.39785 47.7976 4.51787 47.8784C4.63788 47.9591 4.7794 48.0015 4.92386 47.9999Z" fill="#0073FF"/>
</g>
</svg>
