<svg width="135" height="56" viewBox="0 0 135 56" fill="none" xmlns="http://www.w3.org/2000/svg">
<g id="Company logo">
<g id="Vector">
<path d="M108.617 16.9867C110.357 16.9867 111.706 15.6087 111.706 13.8773C111.706 12.1812 110.357 10.8031 108.617 10.8031C106.912 10.8031 105.492 12.1812 105.492 13.8773C105.456 15.6087 106.912 16.9867 108.617 16.9867Z" fill="#2C3242"/>
<path d="M81.9823 19.1421H86.6345V21.9688C87.8064 20.2728 90.3989 18.718 93.4529 18.718C99.2415 18.718 103.645 23.6296 103.645 29.6718C103.645 35.6788 99.2415 40.6255 93.4529 40.6255C90.3989 40.6255 87.8419 39.0709 86.6345 37.3748V48.9999H81.9823V19.1421ZM92.6006 22.9229C88.8363 22.9229 86.2439 25.8556 86.2439 29.6718C86.2439 33.4526 88.8363 36.4207 92.6006 36.4207C96.3294 36.4207 98.9219 33.488 98.9219 29.6718C98.9219 25.891 96.3294 22.9229 92.6006 22.9229Z" fill="#2C3242"/>
<path d="M114.37 19.1421H119.022V22.0042C120.301 19.8841 122.715 18.718 125.45 18.718C130.35 18.718 133.547 22.1808 133.547 27.5164V40.2016H128.894V28.2937C128.894 24.9723 127.19 22.9582 124.491 22.9582C121.401 22.9582 119.022 25.361 119.022 29.8484V40.2016H114.37V19.1421Z" fill="#2C3242"/>
<path d="M46.5404 18.7181C43.8059 18.7181 41.391 19.8841 40.1126 22.0042V10.8031H35.4603V40.2016H40.1126V29.8485C40.1126 25.3609 42.4919 22.9582 45.5815 22.9582C48.2805 22.9582 49.9851 24.9723 49.9851 28.2938V40.2016H54.6373V27.5165C54.6018 22.1809 51.4411 18.7181 46.5404 18.7181Z" fill="#2C3242"/>
<path d="M110.89 19.1422H106.238V40.2017H110.89V19.1422Z" fill="#2C3242"/>
<path d="M68.31 40.6256C62.0598 40.6256 57.2299 35.7848 57.2299 29.6719C57.2299 23.5589 62.0598 18.7181 68.31 18.7181C74.5602 18.7181 79.3899 23.5589 79.3899 29.6719C79.3899 35.7848 74.5602 40.6256 68.31 40.6256ZM68.31 36.3148C72.0388 36.3148 74.6667 33.4173 74.6667 29.6719C74.6667 25.9264 72.0388 23.0289 68.31 23.0289C64.5457 23.0289 61.9177 25.9264 61.9177 29.6719C61.9177 33.4173 64.5457 36.3148 68.31 36.3148Z" fill="#2C3242"/>
</g>
<g id="Vector_2">
<path d="M18.5183 16.4347C18.4829 17.8427 17.4906 19.849 15.825 19.849C14.7971 19.849 13.9467 19.0043 13.9467 17.9835V17.9483C13.9112 16.294 13.167 14.8508 11.9975 13.83C11.1115 13.0908 10.0129 12.5981 8.80791 12.4573C9.83566 11.4013 11.2887 10.7677 12.8834 10.7677C14.9035 10.7677 16.7463 11.9293 17.8095 13.6188C18.3057 14.4636 18.5538 15.4844 18.5183 16.4347Z" fill="#175FFF"/>
<path d="M11.9268 16.5755C12.8127 17.7019 13.3444 19.849 12.0686 20.905C11.2534 21.5737 10.0839 21.4681 9.41057 20.6938C8.31194 19.4618 6.78804 18.8282 5.26414 18.793C4.09464 18.7578 2.92513 19.1098 1.93283 19.7786C2.03915 18.3354 2.7125 16.8923 3.95288 15.8715C5.54766 14.5692 7.78034 14.182 9.69408 14.9563C10.5801 15.2731 11.3597 15.8363 11.9268 16.5755Z" fill="#175FFF"/>
<path d="M6.96514 20.8699C8.34729 21.1515 10.1901 22.4891 9.90663 24.1083C9.72943 25.129 8.73713 25.7978 7.70937 25.6218H7.67394C6.04372 25.3754 4.44894 25.8682 3.27944 26.8186C2.39345 27.5225 1.68466 28.5434 1.3657 29.7048C0.515154 28.5081 0.12532 26.9946 0.373397 25.4107C0.763231 23.4042 2.21625 21.7147 4.20087 21.0459C5.08685 20.7643 6.07916 20.6939 6.96514 20.8699Z" fill="#175FFF"/>
<path d="M5.93739 27.3464C7.17777 26.6777 9.44589 26.5368 10.261 27.9448C10.7926 28.8248 10.4736 29.9863 9.58766 30.5143C8.17007 31.359 7.28408 32.7318 6.96513 34.2453C6.75249 35.3717 6.85881 36.5684 7.3904 37.6597C5.97282 37.3076 4.66156 36.3925 3.88189 35.0198C2.85415 33.2246 2.88958 31.0071 3.95277 29.2472C4.44893 28.4376 5.12228 27.7688 5.93739 27.3464Z" fill="#175FFF"/>
<path d="M9.33931 32.9431C9.87092 31.6407 11.5011 30.0919 13.025 30.6551C14.0174 31.0071 14.5135 32.0982 14.1591 33.0487C13.6274 34.5974 13.8402 36.2165 14.5844 37.5542C15.1514 38.5749 16.0019 39.3845 17.1006 39.9124C15.7538 40.546 14.1945 40.6869 12.7061 40.1237C10.7569 39.4196 9.33931 37.6949 9.02037 35.6533C8.91405 34.7382 9.02037 33.7878 9.33931 32.9431Z" fill="#175FFF"/>
<path d="M15.5769 35.0548C15.1162 33.7173 15.3643 31.4997 16.9235 30.9365C17.9159 30.5846 18.9791 31.0774 19.3335 32.0629C19.9359 33.5765 21.1409 34.7029 22.5939 35.2661C23.6571 35.6884 24.8975 35.7587 26.0669 35.4772C25.4645 36.8147 24.3305 37.906 22.842 38.4691C20.8928 39.1731 18.6601 38.7507 17.1363 37.3779C16.4275 36.7092 15.8605 35.9348 15.5769 35.0548Z" fill="#175FFF"/>
<path d="M21.7432 32.6967C20.5383 31.9575 19.2625 30.092 20.113 28.6841C20.6447 27.8041 21.7787 27.4873 22.7001 27.9801C24.1531 28.7545 25.7833 28.8601 27.2718 28.3673C28.3704 27.9801 29.3628 27.2761 30.0715 26.2906C30.4613 27.6985 30.3196 29.2473 29.5045 30.62C28.4768 32.4151 26.4921 33.5063 24.4367 33.4359C23.4443 33.4359 22.4875 33.1895 21.7432 32.6967Z" fill="#175FFF"/>
<path d="M24.9329 26.9591C23.5152 27.1703 21.3534 26.5367 21.07 24.9176C20.8573 23.932 21.566 22.9464 22.5939 22.7704H22.6292C24.2595 22.4536 25.5708 21.4681 26.3504 20.1657C26.9529 19.1802 27.2364 18.0186 27.1301 16.8218C28.3351 17.6314 29.2564 18.9338 29.5045 20.4825C29.8589 22.4889 29.0438 24.6008 27.4491 25.868C26.7048 26.4311 25.8188 26.8536 24.9329 26.9591Z" fill="#175FFF"/>
<path d="M23.6571 20.5531C22.7002 21.6091 20.6447 22.5242 19.3689 21.4683C18.5538 20.7995 18.4474 19.6379 19.1208 18.8284C20.1485 17.5612 20.5383 15.9421 20.2902 14.4285C20.1131 13.3021 19.5815 12.211 18.731 11.331C20.184 11.1902 21.7079 11.6126 22.9483 12.6334C24.5431 13.9357 25.2873 16.0829 24.862 18.0892C24.6848 19.0044 24.2595 19.8843 23.6571 20.5531Z" fill="#175FFF"/>
</g>
</g>
</svg>
