<svg width="77" height="32" viewBox="0 0 77 32" fill="none" xmlns="http://www.w3.org/2000/svg">
<g id="Company logo" clip-path="url(#clip0_1384_2070)">
<g id="Vector">
<path d="M62.0669 9.70669C63.0613 9.70669 63.8324 8.91923 63.8324 7.92986C63.8324 6.96068 63.0613 6.17322 62.0669 6.17322C61.0929 6.17322 60.2811 6.96068 60.2811 7.92986C60.2608 8.91923 61.0929 9.70669 62.0669 9.70669Z" fill="white"/>
<path d="M46.8472 10.9383H49.5056V12.5536C50.1752 11.5844 51.6566 10.696 53.4018 10.696C56.7096 10.696 59.2259 13.5026 59.2259 16.9553C59.2259 20.3879 56.7096 23.2146 53.4018 23.2146C51.6566 23.2146 50.1955 22.3262 49.5056 21.357V27.9999H46.8472V10.9383ZM52.9148 13.0988C50.7637 13.0988 49.2824 14.7746 49.2824 16.9553C49.2824 19.1158 50.7637 20.8118 52.9148 20.8118C55.0455 20.8118 56.527 19.136 56.527 16.9553C56.527 14.7948 55.0455 13.0988 52.9148 13.0988Z" fill="white"/>
<path d="M65.3545 10.9383H68.0128V12.5738C68.7434 11.3623 70.1231 10.696 71.6858 10.696C74.486 10.696 76.3127 12.6748 76.3127 15.7237V22.9723H73.6541V16.1679C73.6541 14.2699 72.6799 13.119 71.1378 13.119C69.3723 13.119 68.0128 14.492 68.0128 17.0562V22.9723H65.3545V10.9383Z" fill="white"/>
<path d="M26.5946 10.696C25.0321 10.696 23.6521 11.3623 22.9216 12.5738V6.17318H20.2632V22.9723H22.9216V17.0563C22.9216 14.492 24.2812 13.119 26.0467 13.119C27.589 13.119 28.563 14.2699 28.563 16.1679V22.9723H31.2214V15.7237C31.2012 12.6748 29.395 10.696 26.5946 10.696Z" fill="white"/>
<path d="M63.3657 10.9384H60.7073V22.9724H63.3657V10.9384Z" fill="white"/>
<path d="M39.0344 23.2146C35.4629 23.2146 32.703 20.4485 32.703 16.9553C32.703 13.4622 35.4629 10.696 39.0344 10.696C42.606 10.696 45.3658 13.4622 45.3658 16.9553C45.3658 20.4485 42.606 23.2146 39.0344 23.2146ZM39.0344 20.7513C41.1652 20.7513 42.6668 19.0956 42.6668 16.9553C42.6668 14.8151 41.1652 13.1594 39.0344 13.1594C36.8834 13.1594 35.3817 14.8151 35.3817 16.9553C35.3817 19.0956 36.8834 20.7513 39.0344 20.7513Z" fill="white"/>
</g>
<g id="Vector_2">
<path d="M10.582 9.39129C10.5618 10.1958 9.99475 11.3423 9.04298 11.3423C8.45565 11.3423 7.96965 10.8596 7.96965 10.2763V10.2562C7.94937 9.31083 7.52415 8.48617 6.85583 7.90287C6.34956 7.48049 5.72178 7.1989 5.03323 7.11844C5.62051 6.51504 6.45081 6.15299 7.36211 6.15299C8.51642 6.15299 9.56947 6.81674 10.177 7.7822C10.4605 8.26493 10.6023 8.84822 10.582 9.39129Z" fill="#175FFF"/>
<path d="M6.81544 9.47172C7.32168 10.1154 7.62549 11.3423 6.89647 11.9457C6.43066 12.3279 5.76238 12.2675 5.37761 11.825C4.74982 11.121 3.87902 10.759 3.00822 10.7389C2.33994 10.7188 1.67164 10.9199 1.10461 11.3021C1.16537 10.4774 1.55014 9.65274 2.25893 9.06945C3.17023 8.32524 4.44605 8.10399 5.53962 8.54648C6.04589 8.72751 6.49142 9.04933 6.81544 9.47172Z" fill="#175FFF"/>
<path d="M3.98022 11.9257C4.77002 12.0866 5.82308 12.8509 5.66107 13.7762C5.55981 14.3594 4.99278 14.7416 4.40549 14.641H4.38525C3.45369 14.5002 2.54239 14.7818 1.87411 15.3249C1.36782 15.7271 0.962804 16.3105 0.780541 16.9742C0.294513 16.2903 0.0717509 15.4255 0.213509 14.5204C0.436272 13.3738 1.26657 12.4084 2.40063 12.0263C2.90691 11.8653 3.47395 11.8251 3.98022 11.9257Z" fill="#175FFF"/>
<path d="M3.39293 15.6265C4.10172 15.2444 5.39779 15.1639 5.86357 15.9685C6.16734 16.4713 5.98507 17.135 5.4788 17.4368C4.66875 17.9194 4.16247 18.7039 3.98021 19.5688C3.85871 20.2124 3.91946 20.8963 4.22322 21.5198C3.41318 21.3187 2.66389 20.7957 2.21836 20.0113C1.63108 18.9855 1.65133 17.7184 2.25887 16.7127C2.54238 16.2501 2.92716 15.8679 3.39293 15.6265Z" fill="#175FFF"/>
<path d="M5.33689 18.8246C5.64066 18.0804 6.57221 17.1954 7.44302 17.5172C8.01007 17.7184 8.29359 18.3418 8.09106 18.885C7.78725 19.7699 7.9088 20.6952 8.33409 21.4595C8.65811 22.0428 9.1441 22.5054 9.77192 22.8071C9.00234 23.1691 8.11127 23.2496 7.26076 22.9278C6.14694 22.5255 5.33689 21.54 5.15463 20.3733C5.09388 19.8504 5.15463 19.3073 5.33689 18.8246Z" fill="#175FFF"/>
<path d="M8.90122 20.0313C8.63797 19.267 8.77973 17.9998 9.67073 17.678C10.2378 17.4769 10.8453 17.7585 11.0479 18.3216C11.3921 19.1866 12.0806 19.8302 12.9109 20.152C13.5185 20.3933 14.2273 20.4336 14.8955 20.2727C14.5513 21.037 13.9033 21.6605 13.0527 21.9824C11.9389 22.3846 10.6631 22.1432 9.79228 21.3588C9.38728 20.9767 9.06326 20.5341 8.90122 20.0313Z" fill="#175FFF"/>
<path d="M12.4248 18.6839C11.7363 18.2615 11.0073 17.1954 11.4933 16.3909C11.7971 15.8881 12.4451 15.707 12.9716 15.9886C13.8019 16.4311 14.7335 16.4915 15.5841 16.2099C16.2118 15.9886 16.7789 15.5863 17.1839 15.0232C17.4066 15.8277 17.3256 16.7127 16.8598 17.4972C16.2726 18.5229 15.1385 19.1465 13.964 19.1063C13.3969 19.1063 12.8501 18.9655 12.4248 18.6839Z" fill="#175FFF"/>
<path d="M14.2475 15.4052C13.4374 15.5259 12.2021 15.1638 12.0401 14.2386C11.9186 13.6754 12.3236 13.1122 12.9109 13.0117H12.9311C13.8627 12.8307 14.612 12.2675 15.0575 11.5233C15.4018 10.9601 15.5638 10.2963 15.5031 9.61248C16.1916 10.0751 16.7181 10.8193 16.8599 11.7043C17.0624 12.8508 16.5966 14.0576 15.6853 14.7817C15.26 15.1035 14.7538 15.3449 14.2475 15.4052Z" fill="#175FFF"/>
<path d="M13.5185 11.7446C12.9717 12.348 11.7971 12.871 11.0681 12.2676C10.6023 11.8854 10.5415 11.2217 10.9263 10.7591C11.5136 10.035 11.7363 9.10975 11.5946 8.24486C11.4934 7.60123 11.1896 6.97771 10.7036 6.47486C11.5339 6.39441 12.4046 6.63577 13.1135 7.21907C14.0247 7.96327 14.45 9.1902 14.207 10.3367C14.1057 10.8596 13.8627 11.3625 13.5185 11.7446Z" fill="#175FFF"/>
</g>
</g>
<defs>
<clipPath id="clip0_1384_2070">
<rect width="76.6667" height="32" fill="white"/>
</clipPath>
</defs>
</svg>
