<svg width="150" height="56" viewBox="0 0 150 56" fill="none" xmlns="http://www.w3.org/2000/svg">
<g id="Company logo" clip-path="url(#clip0_1384_1604)">
<path id="Vector" fill-rule="evenodd" clip-rule="evenodd" d="M116.277 36.8871C120.125 36.8871 123.256 33.8188 123.256 30.0475C123.256 26.2759 120.125 23.2076 116.277 23.2076C112.428 23.2076 109.297 26.2759 109.297 30.0475C109.297 33.8188 112.428 36.8871 116.277 36.8871ZM123.256 13.0494H123.445H126.563V40.1506H123.256V37.4446C121.348 39.1779 118.887 40.1274 116.277 40.1274C110.605 40.1274 105.991 35.6055 105.991 30.0475C105.991 24.489 110.605 19.9672 116.277 19.9672C118.887 19.9672 121.348 20.9166 123.256 22.6501V13.0494ZM47.7054 36.7677C51.5537 36.7677 54.6846 33.6995 54.6846 29.928C54.6846 26.1566 51.5537 23.0884 47.7054 23.0884C43.8569 23.0884 40.726 26.1566 40.726 29.928C40.726 33.6995 43.8569 36.7677 47.7054 36.7677ZM40.726 22.531C42.6343 20.7976 45.0954 19.848 47.7054 19.848C53.3768 19.848 57.991 24.3699 57.991 29.928C57.991 35.4862 53.3768 40.0081 47.7054 40.0081C45.0954 40.0081 42.6343 39.0587 40.726 37.3251V46.9259H37.4196V19.8247H40.726V22.531ZM64.2998 28.3542C65.0439 25.2912 67.8167 23.0918 70.9795 23.0918C74.1009 23.0918 76.7157 25.2442 77.4125 28.3542H64.2998ZM70.9795 19.8247C65.3929 19.8247 60.8482 24.384 60.8482 29.9876C60.8482 35.5915 65.3929 40.1506 70.9795 40.1506C74.1079 40.1506 76.9791 38.9757 78.8582 36.9272L79.8344 35.8624L79.9602 35.725L79.8233 35.5983L77.7008 33.6399L77.564 33.5133L77.4374 33.6507L76.4612 34.7157C75.2161 36.0731 73.1669 36.8837 70.9795 36.8837C67.8167 36.8837 65.0441 34.6843 64.2998 31.6211H80.8479V29.9876C80.8479 24.2888 76.5131 19.8247 70.9795 19.8247ZM146.113 29.9877C146.113 33.7901 142.982 36.8836 139.134 36.8836C135.285 36.8836 132.154 33.7901 132.154 29.9877C132.154 26.1852 135.285 23.0917 139.134 23.0917C142.982 23.0917 146.113 26.1852 146.113 29.9877ZM139.134 19.8247C133.462 19.8247 128.848 24.3838 128.848 29.9877C128.848 35.5915 133.462 40.1506 139.134 40.1506C144.805 40.1506 149.42 35.5915 149.42 29.9877C149.42 24.3838 144.805 19.8247 139.134 19.8247ZM93.1333 19.8247C90.8359 19.8247 88.6471 20.6996 86.9243 22.2975V19.8247H83.7053V40.1506H86.9243V29.778C86.9243 26.0773 89.7097 23.0663 93.1333 23.0663C96.5576 23.0663 99.3438 26.0773 99.3438 29.778V40.1506H102.562V29.778C102.562 24.2898 98.3323 19.8247 93.1333 19.8247Z" fill="#1A2022"/>
<path id="Vector_2" fill-rule="evenodd" clip-rule="evenodd" d="M0.0861816 32.4073H15.6417V47.6173L31.1973 32.4073V17.1975H15.6417L0.0861816 32.4073Z" fill="#FF4876"/>
</g>
<defs>
<clipPath id="clip0_1384_1604">
<rect width="149.333" height="56" fill="white" transform="translate(0.0861816)"/>
</clipPath>
</defs>
</svg>
