<svg width="86" height="32" viewBox="0 0 86 32" fill="none" xmlns="http://www.w3.org/2000/svg">
<g id="Company logo" clip-path="url(#clip0_1384_2073)">
<path id="Vector" fill-rule="evenodd" clip-rule="evenodd" d="M67.0611 21.0784C69.2604 21.0784 71.0493 19.325 71.0493 17.17C71.0493 15.0148 69.2604 13.2615 67.0611 13.2615C64.8622 13.2615 63.073 15.0148 63.073 17.17C63.073 19.325 64.8622 21.0784 67.0611 21.0784ZM71.0493 7.45679H71.1575H72.9389V22.9432H71.0493V21.3969C69.9589 22.3874 68.5529 22.93 67.0611 22.93C63.8204 22.93 61.1838 20.346 61.1838 17.17C61.1838 13.9937 63.8204 11.4099 67.0611 11.4099C68.5529 11.4099 69.9589 11.9524 71.0493 12.9429V7.45679ZM27.8776 21.0101C30.0766 21.0101 31.8657 19.2568 31.8657 17.1017C31.8657 14.9466 30.0766 13.1934 27.8776 13.1934C25.6785 13.1934 23.8894 14.9466 23.8894 17.1017C23.8894 19.2568 25.6785 21.0101 27.8776 21.0101ZM23.8894 12.8749C24.9798 11.8843 26.3862 11.3417 27.8776 11.3417C31.1184 11.3417 33.7551 13.9257 33.7551 17.1017C33.7551 20.2778 31.1184 22.8617 27.8776 22.8617C26.3862 22.8617 24.9798 22.3193 23.8894 21.3286V26.8148H22V11.3284H23.8894V12.8749ZM37.3601 16.2024C37.7854 14.4521 39.3698 13.1953 41.1771 13.1953C42.9608 13.1953 44.4549 14.4253 44.8531 16.2024H37.3601ZM41.1771 11.3284C37.9848 11.3284 35.3878 13.9337 35.3878 17.1358C35.3878 20.338 37.9848 22.9432 41.1771 22.9432C42.9647 22.9432 44.6054 22.2718 45.6792 21.1013L46.237 20.4928L46.3089 20.4143L46.2307 20.3419L45.0179 19.2228L44.9397 19.1505L44.8674 19.229L44.3095 19.8375C43.598 20.6132 42.4271 21.0764 41.1771 21.0764C39.3698 21.0764 37.7854 19.8196 37.3601 18.0692H46.8162V17.1358C46.8162 13.8793 44.3392 11.3284 41.1771 11.3284ZM84.1104 17.1358C84.1104 19.3086 82.3216 21.0763 80.1223 21.0763C77.9234 21.0763 76.1341 19.3086 76.1341 17.1358C76.1341 14.963 77.9234 13.1953 80.1223 13.1953C82.3216 13.1953 84.1104 14.963 84.1104 17.1358ZM80.1223 11.3284C76.8816 11.3284 74.2449 13.9336 74.2449 17.1358C74.2449 20.338 76.8816 22.9432 80.1223 22.9432C83.3633 22.9432 86 20.338 86 17.1358C86 13.9336 83.3633 11.3284 80.1223 11.3284ZM53.8364 11.3284C52.5237 11.3284 51.2729 11.8283 50.2884 12.7414V11.3284H48.449V22.9432H50.2884V17.016C50.2884 14.9013 51.8801 13.1808 53.8364 13.1808C55.7932 13.1808 57.3853 14.9013 57.3853 17.016V22.9432H59.2243V17.016C59.2243 13.8799 56.8073 11.3284 53.8364 11.3284Z" fill="white"/>
<path id="Vector_2" fill-rule="evenodd" clip-rule="evenodd" d="M0.666504 18.5185H9.55535V27.2099L18.4443 18.5185V9.82716H9.55535L0.666504 18.5185Z" fill="#FF4876"/>
</g>
<defs>
<clipPath id="clip0_1384_2073">
<rect width="85.3333" height="32" fill="white" transform="translate(0.666504)"/>
</clipPath>
</defs>
</svg>
