<svg width="135" height="32" viewBox="0 0 135 32" fill="none" xmlns="http://www.w3.org/2000/svg">
<g id="Company logo" clip-path="url(#clip0_1384_2076)">
<g id="Vector">
<path d="M53.1014 11.1408V13.827H44.6594V16.7622H52.4314V19.4676H44.6594V25.1129H40.6004V11.1408H53.1014Z" fill="#EDEDED"/>
<path d="M56.418 11.1216H59.9243V13.4918H56.418V11.1216ZM56.418 14.7607H59.9243V25.1082H56.418V14.7607Z" fill="#EDEDED"/>
<path d="M62.4367 14.7799H66.1775C67.6571 19.3718 67.9083 20.3103 68.2991 22.2831C68.7849 19.9895 68.8575 19.7357 69.5722 17.2985L70.3092 14.7703H73.9551L70.0467 25.0986H66.3394L62.4367 14.7799Z" fill="#EDEDED"/>
<path d="M87.411 22.4746C86.9996 23.0386 86.5103 23.5578 85.9537 24.0212C84.708 24.983 83.085 25.5063 81.4089 25.4864C77.83 25.4864 75.3175 23.5089 75.3175 20.1427C75.3175 17.648 76.7468 14.4399 81.4982 14.4399C82.3014 14.4189 83.101 14.5398 83.8474 14.7952C84.5937 15.0505 85.2708 15.4349 85.8365 15.9243C87.411 17.3607 87.5115 19.391 87.545 20.5545H78.9466C78.9466 21.8425 79.773 23.1258 81.7048 23.1258C83.6366 23.1258 84.3122 22.0341 84.7533 21.3063L87.411 22.4746ZM83.8767 18.644C83.8477 18.1056 83.6121 17.5906 83.2067 17.1788C82.7374 16.804 82.1171 16.5998 81.4759 16.609C81.1383 16.6072 80.804 16.6659 80.4944 16.7813C80.1848 16.8967 79.9067 17.0664 79.6781 17.2793C79.2942 17.6672 79.0464 18.1403 78.9634 18.644H83.8767Z" fill="#EDEDED"/>
<path d="M91.0625 11.792H94.5967V15.0193H96.925V16.8771H94.5744V21.5505C94.5744 22.1825 94.5744 22.7332 95.4956 22.7332L96.7686 22.6949V25.0651C96.1511 25.1606 95.5256 25.2134 94.8982 25.2231C93.6699 25.2231 92.3355 25.1656 91.5482 24.2127C91.0625 23.5998 91.0402 22.8672 91.0402 21.8809V16.858H89.287V14.9953H91.0402L91.0625 11.792Z" fill="#EDEDED"/>
<path d="M103.312 15.8477C104.28 15.121 105.511 14.7032 106.796 14.6649V17.3655L105.624 17.5236C103.915 17.7773 103.39 18.0024 103.39 19.3048V25.1081H99.8562V14.7607H103.318L103.312 15.8477Z" fill="#EDEDED"/>
<path d="M109.365 17.7199C109.358 17.2794 109.469 16.8436 109.689 16.4459C109.91 16.0482 110.235 15.6993 110.638 15.4263C111.754 14.6793 113.172 14.5213 114.585 14.5213C115.998 14.5213 119.649 14.8134 119.649 17.4852V23.4658C119.649 24.5766 119.716 24.7347 119.995 25.089H116.534V24.1313C115.612 24.7059 114.619 25.3619 112.849 25.3619C110.09 25.3619 108.907 23.6573 108.907 22.2017C108.907 20.5401 110.453 19.5921 111.442 19.2377C112.993 18.8107 114.582 18.4905 116.193 18.2801V17.7247C116.148 17.2458 116.104 16.4557 114.814 16.4557C113.245 16.4557 113.033 17.2889 112.944 17.6672L109.365 17.7199ZM113.865 20.8322C113.267 21.0285 112.341 21.3111 112.341 22.1155C112.359 22.4076 112.512 22.6817 112.765 22.878C113.018 23.0744 113.351 23.1772 113.692 23.1641C114.128 23.1526 114.551 23.0365 114.914 22.8289C116.087 22.1969 116.137 21.2488 116.165 20.1762L113.865 20.8322Z" fill="#EDEDED"/>
<path d="M127.265 15.7087C127.592 15.3658 128.004 15.0894 128.471 14.8995C129.164 14.6499 129.907 14.5166 130.66 14.5069C131.405 14.4913 132.143 14.6327 132.809 14.9187C134.077 15.4933 134.4 16.4222 134.4 18.0263V25.1081H130.872V19.2904C130.933 18.7723 130.878 18.249 130.71 17.7486C130.57 17.4936 130.343 17.2813 130.058 17.1401C129.774 16.999 129.446 16.9356 129.119 16.9585C127.248 16.9585 127.248 18.2465 127.248 19.5298V25.1081H123.708V14.799H127.287L127.265 15.7087Z" fill="#EDEDED"/>
<path d="M18.9315 18.0167H22.6779C22.826 18.0167 22.968 17.9663 23.0727 17.8765C23.1774 17.7867 23.2362 17.6649 23.2362 17.5379C23.2359 17.4722 23.2207 17.4071 23.1915 17.3464L16.7484 2.30644C16.7086 2.21795 16.6391 2.14159 16.5486 2.08703C16.4582 2.03248 16.3508 2.00219 16.2403 2H12.4827C12.3346 2 12.1926 2.05044 12.0879 2.14024C11.9832 2.23003 11.9244 2.35183 11.9244 2.47883C11.9245 2.53435 11.9358 2.58943 11.9579 2.64163L18.4066 17.7199C18.4492 17.8088 18.5221 17.8847 18.6157 17.9377C18.7093 17.9906 18.8193 18.0182 18.9315 18.0167Z" fill="#EDEDED"/>
<path d="M18.2669 33.9999H22.0133C22.1614 33.9999 22.3034 33.9495 22.4081 33.8597C22.5128 33.7699 22.5717 33.6481 22.5717 33.5211C22.5716 33.4656 22.5603 33.4105 22.5382 33.3583L9.25542 2.316C9.21528 2.22676 9.14492 2.14989 9.05337 2.09527C8.96182 2.04065 8.85328 2.0108 8.74176 2.00955H5.00093C4.85285 2.00955 4.71084 2.05999 4.60613 2.14979C4.50143 2.23959 4.44259 2.36139 4.44259 2.48838C4.44267 2.5439 4.45401 2.59899 4.47609 2.65118L17.7589 33.6983C17.7995 33.7859 17.8694 33.8612 17.9598 33.9149C18.0502 33.9685 18.157 33.9981 18.2669 33.9999Z" fill="#EDEDED"/>
<path d="M10.8859 33.9999H14.6267C14.7674 34.0003 14.903 33.9552 15.0065 33.8735C15.11 33.7918 15.1738 33.6797 15.185 33.5594C15.1848 33.4961 15.1736 33.4331 15.1515 33.3727L8.68607 18.3184C8.64629 18.2299 8.57676 18.1535 8.4863 18.099C8.39585 18.0444 8.28852 18.0141 8.17796 18.0119H4.41481C4.27261 18.0193 4.13905 18.0729 4.04148 18.1619C3.94392 18.251 3.88972 18.3686 3.88997 18.4908C3.8898 18.5432 3.90116 18.5952 3.92347 18.644L10.3611 33.7031C10.4037 33.792 10.4765 33.8679 10.5701 33.9209C10.6637 33.9738 10.7738 34.0014 10.8859 33.9999Z" fill="#EDEDED"/>
<path d="M19.3837 2.65599L22.4043 9.69952C22.4441 9.78801 22.5136 9.86438 22.604 9.91894C22.6945 9.9735 22.8018 10.0038 22.9124 10.006H26.642C26.7901 10.006 26.9321 9.95552 27.0368 9.86572C27.1415 9.77593 27.2004 9.65414 27.2004 9.52715C27.2003 9.47163 27.189 9.41653 27.1669 9.36433L24.1463 2.31601C24.1065 2.22752 24.037 2.15116 23.9465 2.0966C23.8561 2.04205 23.7488 2.01176 23.6382 2.00957H19.8918C19.7437 2.00957 19.6017 2.06001 19.497 2.14981C19.3923 2.23961 19.3334 2.3614 19.3334 2.4884C19.3382 2.54641 19.3552 2.60321 19.3837 2.65599Z" fill="#EDEDED"/>
<path d="M3.97929 33.9999H7.72013C7.8682 33.9999 8.01021 33.9495 8.11492 33.8597C8.21963 33.7699 8.27846 33.6481 8.27846 33.5211C8.27838 33.4656 8.26705 33.4105 8.24496 33.3583L5.20763 26.2956C5.16749 26.2064 5.09713 26.1295 5.00558 26.0749C4.91403 26.0203 4.80549 25.9904 4.69397 25.9892H0.958723C0.810644 25.9892 0.668638 26.0396 0.563931 26.1294C0.459223 26.2192 0.400391 26.341 0.400391 26.468C0.400595 26.5251 0.411916 26.5817 0.433889 26.6356L3.45445 33.6983C3.49618 33.7881 3.56868 33.8651 3.66236 33.9189C3.75605 33.9728 3.86652 34.001 3.97929 33.9999Z" fill="#EDEDED"/>
</g>
</g>
<defs>
<clipPath id="clip0_1384_2076">
<rect width="134.4" height="32" fill="white"/>
</clipPath>
</defs>
</svg>
